<?xml version="1.0" encoding="UTF-8" ?>
<!DOCTYPE svg PUBLIC "-//W3C//DTD SVG 1.1//EN" "http://www.w3.org/Graphics/SVG/1.1/DTD/svg11.dtd">
<svg width="160pt" height="160pt" viewBox="0 0 160 160" version="1.1" xmlns="http://www.w3.org/2000/svg">
<g id="#ffffffff">
</g>
<g id="#50a9aeff">
<path fill="#50a9ae" opacity="1.00" d=" M 56.26 64.23 C 71.24 55.06 90.63 53.81 106.78 60.66 C 107.91 57.82 110.52 56.71 113.43 57.36 C 115.48 63.69 119.03 69.53 120.39 76.05 C 118.72 76.29 117.06 76.53 115.39 76.76 C 112.03 72.47 108.97 67.62 104.01 64.99 C 96.28 60.45 86.87 59.77 78.19 61.39 C 70.97 62.81 64.01 66.65 59.82 72.82 C 55.86 78.42 55.26 85.99 57.67 92.32 C 60.07 98.18 65.00 102.84 70.78 105.34 C 81.83 110.63 94.99 109.85 106.13 105.19 C 110.85 103.40 114.83 100.22 119.03 97.51 C 120.43 98.27 121.81 99.06 123.17 99.89 C 114.13 108.24 102.06 113.03 89.82 113.76 C 77.46 114.53 64.21 112.57 54.13 104.88 C 48.12 100.50 43.23 93.71 43.34 86.00 C 42.69 76.89 48.86 68.85 56.26 64.23 Z" />
</g>
<g id="#c66d20ff">
<path fill="#c66d20" opacity="1.00" d=" M 81.93 68.13 C 85.45 67.65 89.01 67.74 92.54 68.10 C 91.42 70.26 89.85 72.11 88.10 73.79 C 87.68 73.75 86.84 73.68 86.41 73.65 C 84.78 71.92 83.20 70.14 81.93 68.13 Z" />
</g>
<g id="#50aab2ff">
<path fill="#50aab2" opacity="1.00" d=" M 86.41 73.65 C 86.84 73.68 87.68 73.75 88.10 73.79 C 95.17 74.86 103.99 78.14 104.78 86.40 L 105.03 87.00 C 102.41 94.11 94.83 97.30 87.78 97.93 L 87.10 97.92 C 83.52 97.55 79.93 96.80 76.60 95.40 C 72.91 93.79 70.65 90.29 68.10 87.36 C 68.23 87.09 68.49 86.56 68.62 86.30 C 69.80 81.91 72.79 77.89 77.14 76.27 C 80.16 75.18 83.23 74.11 86.41 73.65 Z" />
</g>
<g id="#cd6e1eff">
<path fill="#cd6e1e" opacity="1.00" d=" M 104.78 86.40 C 107.90 85.29 110.99 84.10 114.15 83.12 C 114.25 85.64 114.24 88.17 114.14 90.70 C 111.10 89.48 107.90 88.60 105.03 87.00 L 104.78 86.40 Z" />
</g>
<g id="#c47023ff">
<path fill="#c47023" opacity="1.00" d=" M 59.70 83.38 C 62.77 84.05 65.70 85.18 68.62 86.30 C 68.49 86.56 68.23 87.09 68.10 87.36 C 65.58 89.03 62.57 89.70 59.71 90.55 C 59.62 88.16 59.61 85.77 59.70 83.38 Z" />
</g>
<g id="#cf721dff">
<path fill="#cf721d" opacity="1.00" d=" M 87.10 97.92 L 87.78 97.93 C 89.70 99.77 91.31 101.89 92.89 104.02 C 89.23 104.40 85.54 104.40 81.90 103.90 C 83.41 101.73 85.10 99.66 87.10 97.92 Z" />
</g>
</svg>
